<?xml version="1.0" encoding="utf-8"?>
<!-- Generator: Adobe Illustrator 21.1.0, SVG Export Plug-In . SVG Version: 6.00 Build 0)  -->
<svg version="1.1" id="Layer_1" xmlns="http://www.w3.org/2000/svg" xmlns:xlink="http://www.w3.org/1999/xlink" x="0px" y="0px"
	 viewBox="0 0 360 353" style="enable-background:new 0 0 360 353;" xml:space="preserve">
<style type="text/css">
	.st0{fill:#CC3333;}
	.st1{fill:#993300;}
	.st2{fill:#B2BEC3;}
	.st3{font-family:'Roboto-Regular';}
	.st4{font-size:31.7569px;}
	.st5{fill:#636E72;}
	.st6{font-family:'Philosopher-Bold';}
	.st7{font-size:55.9536px;}
</style>
<g>
	<g>
		<path class="st0" d="M0.3,0.1l62.2,49.7c3.5,2.8,7.4,4.8,11.6,6.1l38.4,11.7c4.3,1.3,8.4,3.4,12,6.1l39.1,29.5
			c4.5,3.4,9.4,6,14.7,7.7l35.5,11.7c4.6,1.5,9,3.7,13,6.5l43.3,29.9c6.8,4.7,14.4,8.1,22.4,10.1l33.8,8.3c3.9,1,6.9,3.9,7.9,7.8
			l6.5,24.4c1.4,5.4-1.5,11.1-6.7,13l-34.2,12.8c-12.3,4.6-26,3.6-37.5-2.6l-28-15.2c0,0-60.6,59.4-153.1-10.6l31.6,0.1
			c0,0-26.7-4.4-69-52.7c0,0,37.6,18.9,50.6,20.3c0,0-29.8-28.6-63.9-73.7c0,0,56.6,24.2,87.2,24.1l-15.5-21.6l-44-17.2
			c-6.5-2.5-11.9-7.2-15.3-13.2L0.3,0.1z"/>
		<path class="st1" d="M157.2,122.9l53.6,17.8l3.5,19.3C214.3,160,186.6,137.1,157.2,122.9z"/>
	</g>
</g>
<g>
	<text transform="matrix(1 0 0 1 59.2584 350.3945)" class="st2 st3 st4">ReactJs Starter Kit</text>
</g>
<text transform="matrix(1 0 0 1 7.7116 309.6665)" class="st5 st6 st7">RED DRAGON</text>
</svg>
